<svg xmlns="http://www.w3.org/2000/svg" width="147.199" height="229.085" viewBox="0 0 147.199 229.085"><g transform="translate(3323.187 -5601.992)"><path d="M7.348-27.108l7.1,15.475L22.1-29.585l7.709,17.952,7.014-15.475h7.014L29.641,2.032,22.1-15.419,14.473,2.032.306-27.108Zm65.483,0h6.29V0h-6.29V-2.839A12.011,12.011,0,0,1,64.509.779a11.989,11.989,0,0,1-9.3-4.063,15.112,15.112,0,0,1-3.646-10.354A14.646,14.646,0,0,1,55.213-23.8a11.753,11.753,0,0,1,9.129-4.063,11.528,11.528,0,0,1,8.489,3.9ZM57.969-13.638a9.442,9.442,0,0,0,2.087,6.346,6.837,6.837,0,0,0,5.4,2.477,7.186,7.186,0,0,0,5.622-2.394,9.269,9.269,0,0,0,2.143-6.29,9.269,9.269,0,0,0-2.143-6.29,7.086,7.086,0,0,0-5.566-2.421,6.923,6.923,0,0,0-5.4,2.449A9.029,9.029,0,0,0,57.969-13.638Zm50.51-8.851L103.3-19.733q-1.225-2.5-3.034-2.5a2.087,2.087,0,0,0-1.475.571,1.908,1.908,0,0,0-.612,1.461q0,1.559,3.618,3.089,4.982,2.143,6.708,3.952a6.764,6.764,0,0,1,1.726,4.871,8.535,8.535,0,0,1-2.895,6.568,9.852,9.852,0,0,1-6.791,2.5q-6.819,0-9.658-6.652L96.232-8.35a11.625,11.625,0,0,0,1.7,2.477,3.874,3.874,0,0,0,2.728,1.058q3.173,0,3.173-2.895,0-1.67-2.449-3.117-.946-.473-1.893-.918t-1.92-.918a11.755,11.755,0,0,1-3.841-2.672,6.582,6.582,0,0,1-1.419-4.37,7.733,7.733,0,0,1,2.421-5.845,8.494,8.494,0,0,1,6.012-2.31Q105.945-27.86,108.478-22.488Zm13.075-24.52h6.262v22.154a10.784,10.784,0,0,1,7.375-3.006,9.53,9.53,0,0,1,7.348,2.978q2.338,2.588,2.338,8.266V0h-6.262V-16.031a7.644,7.644,0,0,0-1.155-4.718,4.451,4.451,0,0,0-3.716-1.461q-3.284,0-4.62,2.032-1.308,2.06-1.308,7.069V0h-6.262ZM0,40.5H12.413v5.455H0Zm31.747-30.5V57H25.485V9.992Zm29.014,19.9V45.45q0,6.735,5.316,6.735t5.316-6.735V29.892h6.262v15.7a17.465,17.465,0,0,1-.807,5.622,9.444,9.444,0,0,1-2.7,3.813,11.866,11.866,0,0,1-8.071,2.755,11.825,11.825,0,0,1-8.043-2.755,9.6,9.6,0,0,1-2.755-3.813,15.5,15.5,0,0,1-.779-5.622v-15.7Z" transform="translate(-3322.5 5649.5)" fill="none" stroke="#424242" stroke-width="1"/><path d="M19.705-22.488l-5.177,2.755q-1.225-2.5-3.034-2.5a2.087,2.087,0,0,0-1.475.571,1.908,1.908,0,0,0-.612,1.461q0,1.559,3.618,3.089,4.982,2.143,6.708,3.952a6.764,6.764,0,0,1,1.726,4.871,8.535,8.535,0,0,1-2.895,6.568,9.852,9.852,0,0,1-6.791,2.5q-6.819,0-9.658-6.652L7.459-8.35a11.625,11.625,0,0,0,1.7,2.477,3.874,3.874,0,0,0,2.728,1.058q3.173,0,3.173-2.895,0-1.67-2.449-3.117-.946-.473-1.893-.918t-1.92-.918a11.755,11.755,0,0,1-3.841-2.672,6.582,6.582,0,0,1-1.419-4.37A7.733,7.733,0,0,1,5.956-25.55a8.494,8.494,0,0,1,6.012-2.31Q17.172-27.86,19.705-22.488Z" transform="translate(-3234 5707)" fill="none" stroke="#424242" stroke-width="1"/><path d="M3.952-47.008h6.262v22.154A10.784,10.784,0,0,1,17.59-27.86a9.53,9.53,0,0,1,7.348,2.978q2.338,2.588,2.338,8.266V0H21.013V-16.031a7.644,7.644,0,0,0-1.155-4.718,4.451,4.451,0,0,0-3.716-1.461q-3.284,0-4.62,2.032-1.308,2.06-1.308,7.069V0H3.952Z" transform="translate(-3204 5707)" fill="none" stroke="#424242" stroke-width="1"/><path d="M.813,0V-7.247L5.761-2.07V-6.785H6.785v7.2L1.837-4.75V0ZM13.535-4.28h.993V0h-.993V-.448a1.9,1.9,0,0,1-1.314.571,1.893,1.893,0,0,1-1.468-.642,2.386,2.386,0,0,1-.576-1.635,2.313,2.313,0,0,1,.576-1.6A1.856,1.856,0,0,1,12.195-4.4a1.82,1.82,0,0,1,1.34.615ZM11.189-2.153a1.491,1.491,0,0,0,.33,1,1.08,1.08,0,0,0,.853.391,1.135,1.135,0,0,0,.888-.378,1.464,1.464,0,0,0,.338-.993,1.464,1.464,0,0,0-.338-.993,1.119,1.119,0,0,0-.879-.382,1.093,1.093,0,0,0-.853.387A1.426,1.426,0,0,0,11.189-2.153Zm7.677-1.2V0h-.989V-3.357h-.422V-4.28h.422V-5.849h.989V-4.28h.769v.923Zm4.5-.923v2.457q0,1.063.839,1.063t.839-1.063V-4.28h.989V-1.8a2.758,2.758,0,0,1-.127.888,1.491,1.491,0,0,1-.426.6,1.874,1.874,0,0,1-1.274.435,1.867,1.867,0,0,1-1.27-.435,1.515,1.515,0,0,1-.435-.6,2.448,2.448,0,0,1-.123-.888V-4.28Zm5.986,0h.989V-3.9a1.888,1.888,0,0,1,.483-.391,1.109,1.109,0,0,1,.51-.11,1.6,1.6,0,0,1,.817.255l-.453.905a.944.944,0,0,0-.549-.2q-.809,0-.809,1.222V0h-.989Zm8.53,0h.993V0h-.993V-.448a1.9,1.9,0,0,1-1.314.571A1.893,1.893,0,0,1,35.1-.519a2.386,2.386,0,0,1-.576-1.635,2.313,2.313,0,0,1,.576-1.6A1.856,1.856,0,0,1,36.541-4.4a1.82,1.82,0,0,1,1.34.615ZM35.535-2.153a1.491,1.491,0,0,0,.33,1,1.08,1.08,0,0,0,.853.391,1.135,1.135,0,0,0,.888-.378,1.464,1.464,0,0,0,.338-.993,1.464,1.464,0,0,0-.338-.993,1.119,1.119,0,0,0-.879-.382,1.093,1.093,0,0,0-.853.387A1.426,1.426,0,0,0,35.535-2.153Zm7.647-5.269V0h-.989V-7.422Zm9.383,3.292h2.927V-6.785h1.024V0H55.491V-3.168H52.564V0H51.54V-6.785h1.024ZM63.177-4.28h.993V0h-.993V-.448a1.9,1.9,0,0,1-1.314.571A1.893,1.893,0,0,1,60.4-.519a2.386,2.386,0,0,1-.576-1.635,2.313,2.313,0,0,1,.576-1.6A1.856,1.856,0,0,1,61.837-4.4a1.82,1.82,0,0,1,1.34.615ZM60.831-2.153a1.491,1.491,0,0,0,.33,1,1.08,1.08,0,0,0,.853.391,1.135,1.135,0,0,0,.888-.378,1.464,1.464,0,0,0,.338-.993,1.464,1.464,0,0,0-.338-.993,1.119,1.119,0,0,0-.879-.382,1.093,1.093,0,0,0-.853.387A1.426,1.426,0,0,0,60.831-2.153ZM67.489-4.28h.993v.4A1.621,1.621,0,0,1,69.651-4.4a1.476,1.476,0,0,1,1.165.47,1.925,1.925,0,0,1,.36,1.305V0h-.993V-2.391a1.568,1.568,0,0,0-.176-.875.709.709,0,0,0-.624-.246.763.763,0,0,0-.7.325,2.238,2.238,0,0,0-.2,1.121V0h-.993Zm10.16-3.142h.993V0h-.993V-.448a1.845,1.845,0,0,1-1.323.571,1.883,1.883,0,0,1-1.459-.642,2.386,2.386,0,0,1-.576-1.635,2.306,2.306,0,0,1,.576-1.6A1.837,1.837,0,0,1,76.3-4.4a1.825,1.825,0,0,1,1.345.615ZM75.3-2.153a1.491,1.491,0,0,0,.33,1,1.08,1.08,0,0,0,.853.391,1.135,1.135,0,0,0,.888-.378,1.464,1.464,0,0,0,.338-.993,1.464,1.464,0,0,0-.338-.993,1.119,1.119,0,0,0-.879-.382,1.093,1.093,0,0,0-.853.387A1.426,1.426,0,0,0,75.3-2.153ZM85.291-4.1v1.314a2.409,2.409,0,0,0-.606-.567,1.181,1.181,0,0,0-.62-.158,1.221,1.221,0,0,0-.927.391,1.372,1.372,0,0,0-.369.98,1.4,1.4,0,0,0,.356.989,1.2,1.2,0,0,0,.918.387,1.256,1.256,0,0,0,.628-.154,2.492,2.492,0,0,0,.62-.58V-.189a2.6,2.6,0,0,1-1.2.312,2.3,2.3,0,0,1-1.661-.642,2.141,2.141,0,0,1-.668-1.6,2.17,2.17,0,0,1,.677-1.617A2.29,2.29,0,0,1,84.1-4.4,2.482,2.482,0,0,1,85.291-4.1Zm6.183-.185h.993V0h-.993V-.448A1.9,1.9,0,0,1,90.16.123a1.893,1.893,0,0,1-1.468-.642,2.386,2.386,0,0,1-.576-1.635,2.313,2.313,0,0,1,.576-1.6A1.856,1.856,0,0,1,90.134-4.4a1.82,1.82,0,0,1,1.34.615ZM89.128-2.153a1.491,1.491,0,0,0,.33,1,1.08,1.08,0,0,0,.853.391,1.135,1.135,0,0,0,.888-.378,1.464,1.464,0,0,0,.338-.993,1.464,1.464,0,0,0-.338-.993,1.119,1.119,0,0,0-.879-.382,1.093,1.093,0,0,0-.853.387A1.426,1.426,0,0,0,89.128-2.153ZM95.786-4.28h.989V-3.9a1.888,1.888,0,0,1,.483-.391,1.109,1.109,0,0,1,.51-.11,1.6,1.6,0,0,1,.817.255l-.453.905a.944.944,0,0,0-.549-.2q-.809,0-.809,1.222V0h-.989Zm9.273,2.373h-3.067a1.3,1.3,0,0,0,.343.839,1.045,1.045,0,0,0,.778.308,1.012,1.012,0,0,0,.611-.176,2.5,2.5,0,0,0,.541-.65l.835.466a3.322,3.322,0,0,1-.409.565,2.173,2.173,0,0,1-.461.387,1.85,1.85,0,0,1-.532.222,2.588,2.588,0,0,1-.62.07,2.015,2.015,0,0,1-1.538-.615,2.308,2.308,0,0,1-.58-1.644,2.371,2.371,0,0,1,.563-1.644,1.939,1.939,0,0,1,1.5-.62,1.922,1.922,0,0,1,1.494.6,2.368,2.368,0,0,1,.545,1.657Zm-1.015-.809a.947.947,0,0,0-1-.791,1.024,1.024,0,0,0-.338.055.968.968,0,0,0-.288.158,1,1,0,0,0-.222.248,1.154,1.154,0,0,0-.141.33Zm13.039-3.059-.831.492a1.428,1.428,0,0,0-.444-.527,1.035,1.035,0,0,0-.567-.141,1.047,1.047,0,0,0-.708.242.749.749,0,0,0-.281.6q0,.5.738.8l.677.277a2.889,2.889,0,0,1,1.208.815,1.837,1.837,0,0,1,.382,1.18,2.073,2.073,0,0,1-.624,1.547,2.142,2.142,0,0,1-1.56.615A2.087,2.087,0,0,1,113.615-.4a2.408,2.408,0,0,1-.708-1.472l1.037-.229a1.764,1.764,0,0,0,.246.826,1.066,1.066,0,0,0,.923.439,1.071,1.071,0,0,0,.8-.321,1.11,1.11,0,0,0,.316-.813,1.141,1.141,0,0,0-.055-.363.92.92,0,0,0-.171-.3,1.37,1.37,0,0,0-.3-.259,2.9,2.9,0,0,0-.439-.231L114.6-3.4a1.885,1.885,0,0,1-1.393-1.723,1.634,1.634,0,0,1,.584-1.279,2.112,2.112,0,0,1,1.455-.519A2.031,2.031,0,0,1,117.082-5.774Zm6.447,1.494h.993V0h-.993V-.448a1.9,1.9,0,0,1-1.314.571,1.893,1.893,0,0,1-1.468-.642,2.386,2.386,0,0,1-.576-1.635,2.313,2.313,0,0,1,.576-1.6,1.856,1.856,0,0,1,1.441-.642,1.82,1.82,0,0,1,1.34.615Zm-2.347,2.127a1.491,1.491,0,0,0,.33,1,1.08,1.08,0,0,0,.853.391,1.135,1.135,0,0,0,.888-.378,1.464,1.464,0,0,0,.338-.993,1.464,1.464,0,0,0-.338-.993,1.119,1.119,0,0,0-.879-.382,1.093,1.093,0,0,0-.853.387A1.426,1.426,0,0,0,121.182-2.153Zm7.647-5.269V0h-.989V-7.422Zm3.12,5.251a2.127,2.127,0,0,1,.664-1.578,2.224,2.224,0,0,1,1.617-.65,2.236,2.236,0,0,1,1.626.655,2.179,2.179,0,0,1,.659,1.608,2.168,2.168,0,0,1-.664,1.613,2.268,2.268,0,0,1-1.639.646A2.175,2.175,0,0,1,132.6-.536,2.217,2.217,0,0,1,131.949-2.171Zm1.011.018a1.444,1.444,0,0,0,.343,1.015,1.207,1.207,0,0,0,.927.378,1.205,1.205,0,0,0,.927-.374,1.407,1.407,0,0,0,.347-1,1.407,1.407,0,0,0-.347-1,1.207,1.207,0,0,0-.927-.378,1.2,1.2,0,0,0-.918.378A1.375,1.375,0,0,0,132.96-2.153Zm6.671-2.127h.993v.4a1.621,1.621,0,0,1,1.169-.514,1.476,1.476,0,0,1,1.165.47,1.925,1.925,0,0,1,.36,1.305V0h-.993V-2.391a1.568,1.568,0,0,0-.176-.875.709.709,0,0,0-.624-.246.763.763,0,0,0-.7.325,2.238,2.238,0,0,0-.2,1.121V0h-.993ZM146.79-.492a.583.583,0,0,1,.18-.426.588.588,0,0,1,.431-.18.588.588,0,0,1,.431.18.588.588,0,0,1,.18.431.593.593,0,0,1-.18.435.586.586,0,0,1-.431.176.591.591,0,0,1-.435-.176A.6.6,0,0,1,146.79-.492Z" transform="translate(-3324 5729)" fill="#424242"/><path d="M6.948-.144H6.642L6.12-5.508,3.735-.108,1.413-5.562.855-.144H.549l.783-6.021L3.726-.621,6.2-6.165Zm6.1-5.274a.262.262,0,0,1-.076.194.274.274,0,0,1-.2.076.262.262,0,0,1-.193-.076.262.262,0,0,1-.076-.194.262.262,0,0,1,.076-.193.262.262,0,0,1,.193-.077.282.282,0,0,1,.194.077A.248.248,0,0,1,13.05-5.418ZM12.9-.144h-.252V-3.753H12.9Zm6.291,0h-.252V-6.669h.252Zm9.108,0h-.252v-.981L27.8-.747a2.259,2.259,0,0,1-.549.567,1.281,1.281,0,0,1-.72.207A1.585,1.585,0,0,1,25.281-.5a2.073,2.073,0,0,1-.468-1.422,2.116,2.116,0,0,1,.468-1.422,1.5,1.5,0,0,1,1.2-.549,1.42,1.42,0,0,1,1.368.774l.216.315-.018-.945H28.3Zm-.243-1.863a1.812,1.812,0,0,0-.392-1.238,1.347,1.347,0,0,0-1.066-.445,1.331,1.331,0,0,0-1.062.473,1.949,1.949,0,0,0-.405,1.309A1.911,1.911,0,0,0,25.506-.63a1.345,1.345,0,0,0,1.08.441,1.326,1.326,0,0,0,1.062-.477A2.011,2.011,0,0,0,28.053-2.007Zm9.2,1.863H37V-2.4q0-1.3-1.152-1.3-1.35,0-1.35,1.665v1.89h-.252V-3.753h.225v.945a1.636,1.636,0,0,1,.684-.9,1.677,1.677,0,0,1,.837-.189,1.273,1.273,0,0,1,.927.324,1.234,1.234,0,0,1,.333.927Zm9.513-1.8a1.885,1.885,0,0,1-.585,1.395,1.93,1.93,0,0,1-1.4.576,1.882,1.882,0,0,1-1.382-.571,1.9,1.9,0,0,1-.571-1.4,1.885,1.885,0,0,1,.567-1.386A1.885,1.885,0,0,1,44.775-3.9a1.937,1.937,0,0,1,1.413.567A1.87,1.87,0,0,1,46.764-1.944Zm-.3.009a1.72,1.72,0,0,0-.486-1.242,1.587,1.587,0,0,0-1.188-.5,1.59,1.59,0,0,0-1.193.5,1.725,1.725,0,0,0-.481,1.246,1.72,1.72,0,0,0,.486,1.242,1.587,1.587,0,0,0,1.188.5,1.6,1.6,0,0,0,1.183-.5A1.708,1.708,0,0,0,46.467-1.935ZM3.447,24.856H.945V18.709h.3v5.886h2.2Zm8.235-1.926-3.1-.009a2.178,2.178,0,0,0,.405,1.413,1.315,1.315,0,0,0,1.071.5,1.466,1.466,0,0,0,1.35-.882l.252.135a1.738,1.738,0,0,1-1.6.945,1.654,1.654,0,0,1-1.287-.535,2,2,0,0,1-.486-1.4,2.085,2.085,0,0,1,.486-1.449,1.627,1.627,0,0,1,1.269-.54,1.529,1.529,0,0,1,1.188.495A1.9,1.9,0,0,1,11.682,22.93Zm-.342-.18a1.406,1.406,0,0,0-.369-1.053,1.369,1.369,0,0,0-1-.36,1.273,1.273,0,0,0-.923.374A1.609,1.609,0,0,0,8.6,22.75Zm16.317,2.106h-.342l-2.259-3.069h-.567v3.069h-.3V18.709h1.035q1.944,0,1.944,1.611a1.342,1.342,0,0,1-.45,1.089,2.108,2.108,0,0,1-1.377.378ZM26.829,20.3a1.315,1.315,0,0,0-.369-1.062,1.962,1.962,0,0,0-1.242-.306h-.729V21.6h.729a2.107,2.107,0,0,0,1.215-.261A1.215,1.215,0,0,0,26.829,20.3Zm9.693,2.754a1.885,1.885,0,0,1-.585,1.4,1.93,1.93,0,0,1-1.4.576,1.882,1.882,0,0,1-1.382-.572A1.958,1.958,0,0,1,34.533,21.1a1.937,1.937,0,0,1,1.413.567A1.87,1.87,0,0,1,36.522,23.056Zm-.3.009a1.72,1.72,0,0,0-.486-1.242,1.663,1.663,0,0,0-2.381,0,1.842,1.842,0,0,0,0,2.488,1.652,1.652,0,0,0,2.372,0A1.708,1.708,0,0,0,36.225,23.065Zm8.73,1.71a2.741,2.741,0,0,1-1.242.27,1.808,1.808,0,0,1-1.359-.549,1.924,1.924,0,0,1-.531-1.4,1.9,1.9,0,0,1,2-2,2.507,2.507,0,0,1,1.071.207l-.009.252a2.235,2.235,0,0,0-1.071-.27,1.641,1.641,0,0,0-1.264.5,1.9,1.9,0,0,0-.463,1.345,1.663,1.663,0,0,0,1.728,1.719,2.25,2.25,0,0,0,1.143-.324Zm8.505.081h-.252V22.6q0-1.3-1.152-1.3-1.35,0-1.35,1.665v1.89h-.252V18.331h.252v3.375h.162a1.1,1.1,0,0,1,.54-.459A2.07,2.07,0,0,1,52.2,21.1a1.273,1.273,0,0,1,.927.324,1.234,1.234,0,0,1,.333.927Zm8.955-1.926-3.1-.009a2.178,2.178,0,0,0,.405,1.413,1.315,1.315,0,0,0,1.071.5,1.466,1.466,0,0,0,1.35-.882l.252.135a1.738,1.738,0,0,1-1.6.945,1.654,1.654,0,0,1-1.287-.535,2,2,0,0,1-.486-1.4,2.085,2.085,0,0,1,.486-1.449,1.627,1.627,0,0,1,1.269-.54,1.529,1.529,0,0,1,1.188.495A1.9,1.9,0,0,1,62.415,22.93Zm-.342-.18A1.406,1.406,0,0,0,61.7,21.7a1.369,1.369,0,0,0-1-.36,1.273,1.273,0,0,0-.923.374,1.609,1.609,0,0,0-.445,1.039Zm6.273,2.106h-.252V18.331h.252Zm6.282,0h-.252V18.331h.252Zm9.036-1.926-3.1-.009a2.179,2.179,0,0,0,.4,1.413,1.315,1.315,0,0,0,1.071.5,1.466,1.466,0,0,0,1.35-.882l.252.135a1.738,1.738,0,0,1-1.6.945,1.654,1.654,0,0,1-1.287-.535,2,2,0,0,1-.486-1.4,2.085,2.085,0,0,1,.486-1.449,1.627,1.627,0,0,1,1.269-.54,1.529,1.529,0,0,1,1.188.495A1.9,1.9,0,0,1,83.664,22.93Zm-.342-.18a1.406,1.406,0,0,0-.369-1.053,1.369,1.369,0,0,0-1-.36,1.273,1.273,0,0,0-.923.374,1.609,1.609,0,0,0-.445,1.039ZM3.447,49.856H.945V43.709h.3V49.6h2.2Zm5.8-5.274a.262.262,0,0,1-.076.194.274.274,0,0,1-.2.076.27.27,0,1,1,0-.54.282.282,0,0,1,.194.076A.248.248,0,0,1,9.243,44.582ZM9.09,49.856H8.838V46.247H9.09Zm8.037-.864a.933.933,0,0,1-.337.751,1.4,1.4,0,0,1-.932.284,1.452,1.452,0,0,1-.72-.171,1.09,1.09,0,0,1-.459-.486l.261-.153a1.087,1.087,0,0,0,1.026.594.949.949,0,0,0,.652-.212.725.725,0,0,0,.239-.571.784.784,0,0,0-.5-.72l-.684-.288a1.889,1.889,0,0,1-.639-.4.75.75,0,0,1-.207-.54.92.92,0,0,1,.306-.711,1.156,1.156,0,0,1,.81-.279,1.137,1.137,0,0,1,1.107.585l-.234.135a.948.948,0,0,0-.909-.5.805.805,0,0,0-.567.207.669.669,0,0,0-.225.513.622.622,0,0,0,.243.5,2.564,2.564,0,0,0,.778.378,2.063,2.063,0,0,1,.734.369A.924.924,0,0,1,17.127,48.992Zm9.072-.918a2.064,2.064,0,0,1-.472,1.417,1.582,1.582,0,0,1-1.247.535,1.46,1.46,0,0,1-1.3-.774l-.207-.414v1.017h-.252V43.331h.252V47.1l.18-.279a1.64,1.64,0,0,1,2.579-.176A2.125,2.125,0,0,1,26.2,48.074Zm-.315.018a1.963,1.963,0,0,0-.4-1.309,1.458,1.458,0,0,0-2.124-.027,1.812,1.812,0,0,0-.392,1.237,2.015,2.015,0,0,0,.4,1.336,1.464,1.464,0,0,0,2.133.041A1.911,1.911,0,0,0,25.884,48.092Zm9.54-.036a1.885,1.885,0,0,1-.585,1.4,1.93,1.93,0,0,1-1.4.576,1.882,1.882,0,0,1-1.381-.571A1.958,1.958,0,0,1,33.435,46.1a1.937,1.937,0,0,1,1.413.567A1.87,1.87,0,0,1,35.424,48.056Zm-.3.009a1.72,1.72,0,0,0-.486-1.242,1.663,1.663,0,0,0-2.381,0,1.842,1.842,0,0,0,0,2.488,1.652,1.652,0,0,0,2.371,0A1.708,1.708,0,0,0,35.127,48.065Zm8.919,1.791h-.252V47.6q0-1.3-1.152-1.3-1.35,0-1.35,1.665v1.89H41.04V46.247h.225v.945a1.636,1.636,0,0,1,.684-.9,1.677,1.677,0,0,1,.837-.189,1.273,1.273,0,0,1,.927.324,1.234,1.234,0,0,1,.333.927Z" transform="translate(-3323 5781)" fill="#424242" stroke="#424242" stroke-width="0.1"/></g></svg>