<svg xmlns="http://www.w3.org/2000/svg" width="267" height="74" viewBox="0 0 267 74"><g transform="translate(3166 -5866)"><g transform="translate(0 44.302)"><g transform="translate(-3135.194 5833.486)"><path d="M14.784,21.431,9.611,33.269,0,13.5H4.777L9.592,24,14.784,11.82,20.014,24l4.759-10.5h4.758L19.9,33.269Zm46.668,6.476,3.626-1.681a7.869,7.869,0,0,0,1.152,1.681,2.626,2.626,0,0,0,1.85.718q2.153,0,2.153-1.964,0-1.133-1.662-2.114-.641-.321-1.284-.623c-.429-.2-.862-.41-1.3-.623a7.962,7.962,0,0,1-2.605-1.813,4.462,4.462,0,0,1-.963-2.964,5.249,5.249,0,0,1,1.642-3.965,5.766,5.766,0,0,1,4.079-1.567q3.531,0,5.249,3.644L69.874,18.5q-.831-1.7-2.058-1.7a1.413,1.413,0,0,0-1,.386,1.3,1.3,0,0,0-.415.992q0,1.058,2.455,2.1A14.633,14.633,0,0,1,73.4,22.96a4.589,4.589,0,0,1,1.171,3.3,5.79,5.79,0,0,1-1.964,4.455,7.041,7.041,0,0,1-11.16-2.813Zm-24.2,1.756a10.253,10.253,0,0,1-2.473-7.023,9.938,9.938,0,0,1,2.473-6.892,7.975,7.975,0,0,1,6.193-2.757A7.819,7.819,0,0,1,49.2,15.634V13.5h4.267V31.891H49.2V29.965a8.159,8.159,0,0,1-11.952-.3Zm3.323-11.178a6.127,6.127,0,0,0-1.454,4.154,6.408,6.408,0,0,0,1.416,4.305,4.643,4.643,0,0,0,3.664,1.68A4.874,4.874,0,0,0,48.012,27a6.284,6.284,0,0,0,1.454-4.267,6.281,6.281,0,0,0-1.454-4.267,4.806,4.806,0,0,0-3.776-1.644A4.7,4.7,0,0,0,40.573,18.485ZM93.831,31.891V21.015a5.192,5.192,0,0,0-.783-3.2,3.025,3.025,0,0,0-2.52-.991A3.463,3.463,0,0,0,87.393,18.2,9.438,9.438,0,0,0,86.5,23v8.893H82.257V0H86.5V15.03a7.319,7.319,0,0,1,5-2.039,6.468,6.468,0,0,1,4.985,2.02q1.586,1.757,1.586,5.608V31.891Z" fill="none" stroke="#424242" stroke-width="1"/><path d="M61.476,28.246l3.625-1.68a7.85,7.85,0,0,0,1.152,1.68,2.629,2.629,0,0,0,1.85.717q2.153,0,2.153-1.963,0-1.133-1.661-2.115-.643-.321-1.285-.623t-1.3-.623A7.96,7.96,0,0,1,63.4,21.827a4.467,4.467,0,0,1-.962-2.964A5.247,5.247,0,0,1,64.081,14.9,5.764,5.764,0,0,1,68.16,13.33q3.531,0,5.249,3.645L69.9,18.843q-.831-1.7-2.058-1.7a1.415,1.415,0,0,0-1,.387,1.294,1.294,0,0,0-.416.991q0,1.057,2.455,2.1a14.617,14.617,0,0,1,4.55,2.682,4.584,4.584,0,0,1,1.17,3.3,5.785,5.785,0,0,1-1.964,4.456,7.04,7.04,0,0,1-11.158-2.814Zm-22.1,2.3a6.507,6.507,0,0,1-1.87-2.587,10.534,10.534,0,0,1-.529-3.814V13.5h4.249V24.055q0,4.569,3.606,4.569t3.607-4.569V13.5h4.248V24.15a11.843,11.843,0,0,1-.548,3.814A6.4,6.4,0,0,1,50.3,30.551a8.052,8.052,0,0,1-5.476,1.87A8.023,8.023,0,0,1,39.372,30.551Zm55.277,1.68V21.354a5.188,5.188,0,0,0-.783-3.2,3.02,3.02,0,0,0-2.52-.991,3.466,3.466,0,0,0-3.134,1.378,9.445,9.445,0,0,0-.888,4.8v8.894H83.074V.339h4.248V15.369a7.314,7.314,0,0,1,5-2.039,6.466,6.466,0,0,1,4.985,2.02Q98.9,17.106,98.9,20.958V32.231ZM17.29,31.892V0h4.248V31.892ZM0,24.4v-3.7H8.422v3.7Z" transform="translate(107.339 0.678)" fill="none" stroke="#424242" stroke-width="1"/><path d="M.813,0V-7.247L5.761-2.07V-6.785H6.785v7.2L1.837-4.75V0ZM13.535-4.28h.993V0h-.993V-.448a1.9,1.9,0,0,1-1.314.571,1.893,1.893,0,0,1-1.468-.642,2.386,2.386,0,0,1-.576-1.635,2.313,2.313,0,0,1,.576-1.6A1.856,1.856,0,0,1,12.195-4.4a1.82,1.82,0,0,1,1.34.615ZM11.189-2.153a1.491,1.491,0,0,0,.33,1,1.08,1.08,0,0,0,.853.391,1.135,1.135,0,0,0,.888-.378,1.464,1.464,0,0,0,.338-.993,1.464,1.464,0,0,0-.338-.993,1.119,1.119,0,0,0-.879-.382,1.093,1.093,0,0,0-.853.387A1.426,1.426,0,0,0,11.189-2.153Zm7.677-1.2V0h-.989V-3.357h-.422V-4.28h.422V-5.849h.989V-4.28h.769v.923Zm4.5-.923v2.457q0,1.063.839,1.063t.839-1.063V-4.28h.989V-1.8a2.758,2.758,0,0,1-.127.888,1.491,1.491,0,0,1-.426.6,1.874,1.874,0,0,1-1.274.435,1.867,1.867,0,0,1-1.27-.435,1.515,1.515,0,0,1-.435-.6,2.448,2.448,0,0,1-.123-.888V-4.28Zm5.986,0h.989V-3.9a1.888,1.888,0,0,1,.483-.391,1.109,1.109,0,0,1,.51-.11,1.6,1.6,0,0,1,.817.255l-.453.905a.944.944,0,0,0-.549-.2q-.809,0-.809,1.222V0h-.989Zm8.53,0h.993V0h-.993V-.448a1.9,1.9,0,0,1-1.314.571A1.893,1.893,0,0,1,35.1-.519a2.386,2.386,0,0,1-.576-1.635,2.313,2.313,0,0,1,.576-1.6A1.856,1.856,0,0,1,36.541-4.4a1.82,1.82,0,0,1,1.34.615ZM35.535-2.153a1.491,1.491,0,0,0,.33,1,1.08,1.08,0,0,0,.853.391,1.135,1.135,0,0,0,.888-.378,1.464,1.464,0,0,0,.338-.993,1.464,1.464,0,0,0-.338-.993,1.119,1.119,0,0,0-.879-.382,1.093,1.093,0,0,0-.853.387A1.426,1.426,0,0,0,35.535-2.153Zm7.647-5.269V0h-.989V-7.422Zm9.383,3.292h2.927V-6.785h1.024V0H55.491V-3.168H52.564V0H51.54V-6.785h1.024ZM63.177-4.28h.993V0h-.993V-.448a1.9,1.9,0,0,1-1.314.571A1.893,1.893,0,0,1,60.4-.519a2.386,2.386,0,0,1-.576-1.635,2.313,2.313,0,0,1,.576-1.6A1.856,1.856,0,0,1,61.837-4.4a1.82,1.82,0,0,1,1.34.615ZM60.831-2.153a1.491,1.491,0,0,0,.33,1,1.08,1.08,0,0,0,.853.391,1.135,1.135,0,0,0,.888-.378,1.464,1.464,0,0,0,.338-.993,1.464,1.464,0,0,0-.338-.993,1.119,1.119,0,0,0-.879-.382,1.093,1.093,0,0,0-.853.387A1.426,1.426,0,0,0,60.831-2.153ZM67.489-4.28h.993v.4A1.621,1.621,0,0,1,69.651-4.4a1.476,1.476,0,0,1,1.165.47,1.925,1.925,0,0,1,.36,1.305V0h-.993V-2.391a1.568,1.568,0,0,0-.176-.875.709.709,0,0,0-.624-.246.763.763,0,0,0-.7.325,2.238,2.238,0,0,0-.2,1.121V0h-.993Zm10.16-3.142h.993V0h-.993V-.448a1.845,1.845,0,0,1-1.323.571,1.883,1.883,0,0,1-1.459-.642,2.386,2.386,0,0,1-.576-1.635,2.306,2.306,0,0,1,.576-1.6A1.837,1.837,0,0,1,76.3-4.4a1.825,1.825,0,0,1,1.345.615ZM75.3-2.153a1.491,1.491,0,0,0,.33,1,1.08,1.08,0,0,0,.853.391,1.135,1.135,0,0,0,.888-.378,1.464,1.464,0,0,0,.338-.993,1.464,1.464,0,0,0-.338-.993,1.119,1.119,0,0,0-.879-.382,1.093,1.093,0,0,0-.853.387A1.426,1.426,0,0,0,75.3-2.153ZM85.291-4.1v1.314a2.409,2.409,0,0,0-.606-.567,1.181,1.181,0,0,0-.62-.158,1.221,1.221,0,0,0-.927.391,1.372,1.372,0,0,0-.369.98,1.4,1.4,0,0,0,.356.989,1.2,1.2,0,0,0,.918.387,1.256,1.256,0,0,0,.628-.154,2.492,2.492,0,0,0,.62-.58V-.189a2.6,2.6,0,0,1-1.2.312,2.3,2.3,0,0,1-1.661-.642,2.141,2.141,0,0,1-.668-1.6,2.17,2.17,0,0,1,.677-1.617A2.29,2.29,0,0,1,84.1-4.4,2.482,2.482,0,0,1,85.291-4.1Zm6.183-.185h.993V0h-.993V-.448A1.9,1.9,0,0,1,90.16.123a1.893,1.893,0,0,1-1.468-.642,2.386,2.386,0,0,1-.576-1.635,2.313,2.313,0,0,1,.576-1.6A1.856,1.856,0,0,1,90.134-4.4a1.82,1.82,0,0,1,1.34.615ZM89.128-2.153a1.491,1.491,0,0,0,.33,1,1.08,1.08,0,0,0,.853.391,1.135,1.135,0,0,0,.888-.378,1.464,1.464,0,0,0,.338-.993,1.464,1.464,0,0,0-.338-.993,1.119,1.119,0,0,0-.879-.382,1.093,1.093,0,0,0-.853.387A1.426,1.426,0,0,0,89.128-2.153ZM95.786-4.28h.989V-3.9a1.888,1.888,0,0,1,.483-.391,1.109,1.109,0,0,1,.51-.11,1.6,1.6,0,0,1,.817.255l-.453.905a.944.944,0,0,0-.549-.2q-.809,0-.809,1.222V0h-.989Zm9.273,2.373h-3.067a1.3,1.3,0,0,0,.343.839,1.045,1.045,0,0,0,.778.308,1.012,1.012,0,0,0,.611-.176,2.5,2.5,0,0,0,.541-.65l.835.466a3.322,3.322,0,0,1-.409.565,2.173,2.173,0,0,1-.461.387,1.85,1.85,0,0,1-.532.222,2.588,2.588,0,0,1-.62.07,2.015,2.015,0,0,1-1.538-.615,2.308,2.308,0,0,1-.58-1.644,2.371,2.371,0,0,1,.563-1.644,1.939,1.939,0,0,1,1.5-.62,1.922,1.922,0,0,1,1.494.6,2.368,2.368,0,0,1,.545,1.657Zm-1.015-.809a.947.947,0,0,0-1-.791,1.024,1.024,0,0,0-.338.055.968.968,0,0,0-.288.158,1,1,0,0,0-.222.248,1.154,1.154,0,0,0-.141.33Zm13.039-3.059-.831.492a1.428,1.428,0,0,0-.444-.527,1.035,1.035,0,0,0-.567-.141,1.047,1.047,0,0,0-.708.242.749.749,0,0,0-.281.6q0,.5.738.8l.677.277a2.889,2.889,0,0,1,1.208.815,1.837,1.837,0,0,1,.382,1.18,2.073,2.073,0,0,1-.624,1.547,2.142,2.142,0,0,1-1.56.615A2.087,2.087,0,0,1,113.615-.4a2.408,2.408,0,0,1-.708-1.472l1.037-.229a1.764,1.764,0,0,0,.246.826,1.066,1.066,0,0,0,.923.439,1.071,1.071,0,0,0,.8-.321,1.11,1.11,0,0,0,.316-.813,1.141,1.141,0,0,0-.055-.363.92.92,0,0,0-.171-.3,1.37,1.37,0,0,0-.3-.259,2.9,2.9,0,0,0-.439-.231L114.6-3.4a1.885,1.885,0,0,1-1.393-1.723,1.634,1.634,0,0,1,.584-1.279,2.112,2.112,0,0,1,1.455-.519A2.031,2.031,0,0,1,117.082-5.774Zm6.447,1.494h.993V0h-.993V-.448a1.9,1.9,0,0,1-1.314.571,1.893,1.893,0,0,1-1.468-.642,2.386,2.386,0,0,1-.576-1.635,2.313,2.313,0,0,1,.576-1.6,1.856,1.856,0,0,1,1.441-.642,1.82,1.82,0,0,1,1.34.615Zm-2.347,2.127a1.491,1.491,0,0,0,.33,1,1.08,1.08,0,0,0,.853.391,1.135,1.135,0,0,0,.888-.378,1.464,1.464,0,0,0,.338-.993,1.464,1.464,0,0,0-.338-.993,1.119,1.119,0,0,0-.879-.382,1.093,1.093,0,0,0-.853.387A1.426,1.426,0,0,0,121.182-2.153Zm7.647-5.269V0h-.989V-7.422Zm3.12,5.251a2.127,2.127,0,0,1,.664-1.578,2.224,2.224,0,0,1,1.617-.65,2.236,2.236,0,0,1,1.626.655,2.179,2.179,0,0,1,.659,1.608,2.168,2.168,0,0,1-.664,1.613,2.268,2.268,0,0,1-1.639.646A2.175,2.175,0,0,1,132.6-.536,2.217,2.217,0,0,1,131.949-2.171Zm1.011.018a1.444,1.444,0,0,0,.343,1.015,1.207,1.207,0,0,0,.927.378,1.205,1.205,0,0,0,.927-.374,1.407,1.407,0,0,0,.347-1,1.407,1.407,0,0,0-.347-1,1.207,1.207,0,0,0-.927-.378,1.2,1.2,0,0,0-.918.378A1.375,1.375,0,0,0,132.96-2.153Zm6.671-2.127h.993v.4a1.621,1.621,0,0,1,1.169-.514,1.476,1.476,0,0,1,1.165.47,1.925,1.925,0,0,1,.36,1.305V0h-.993V-2.391a1.568,1.568,0,0,0-.176-.875.709.709,0,0,0-.624-.246.763.763,0,0,0-.7.325,2.238,2.238,0,0,0-.2,1.121V0h-.993ZM146.79-.492a.583.583,0,0,1,.18-.426.588.588,0,0,1,.431-.18.588.588,0,0,1,.431.18.588.588,0,0,1,.18.431.593.593,0,0,1-.18.435.586.586,0,0,1-.431.176.591.591,0,0,1-.435-.176A.6.6,0,0,1,146.79-.492Z" transform="translate(29.194 47.658)" fill="#424242"/></g><rect width="267" height="74" transform="translate(-3166 5821.698)" fill="none"/></g></g></svg>