<svg xmlns="http://www.w3.org/2000/svg" width="42.5" height="315.348" viewBox="0 0 42.5 315.348"><path d="M.25-32.062H4.286L13.638-9.88l9.8-22.182h.7L33.872-9.88,43.39-32.062h4.119L34.261-1.531h-.779L23.8-23.379,14-1.531h-.724Zm71.968-1.559a15.154,15.154,0,0,1,11.689,5.093,15.746,15.746,0,0,1,4.286,11.049q.056,15.809,0,16.059H84.047V-8.35Q80.791-2.282,72.219-1.559A14.933,14.933,0,0,1,60.766-6.332a15.851,15.851,0,0,1-4.439-11.147,15.95,15.95,0,0,1,4.2-11.021A15.116,15.116,0,0,1,72.219-33.621Zm0,3.841a11.262,11.262,0,0,0-8.377,3.618,12.1,12.1,0,0,0-3.507,8.739,12.549,12.549,0,0,0,1.6,6.193A11.226,11.226,0,0,0,66.262-6.8,11.88,11.88,0,0,0,72.219-5.26Q82.656-6.318,83.936-17.423a12.257,12.257,0,0,0-3.423-8.739A11,11,0,0,0,72.219-29.78Zm44.637.278-2.5,2.616q-3.173-3.062-6.151-3.062a4.684,4.684,0,0,0-3.284,1.252,3.911,3.911,0,0,0-1.364,2.978,4.246,4.246,0,0,0,1.141,2.783,14.879,14.879,0,0,0,4.7,3.256q4.4,2.254,5.956,4.37a8.086,8.086,0,0,1,1.531,4.815,8.572,8.572,0,0,1-2.63,6.332,8.98,8.98,0,0,1-6.582,2.6,11.774,11.774,0,0,1-5.052-1.127,10.55,10.55,0,0,1-3.966-3.159l2.477-2.811q3.006,3.4,6.374,3.4A5.7,5.7,0,0,0,111.5-6.777a4.673,4.673,0,0,0,1.656-3.549,4.572,4.572,0,0,0-1.085-3.006,17.243,17.243,0,0,0-4.926-3.284Q103-18.7,101.52-20.818a7.818,7.818,0,0,1-1.5-4.731,7.689,7.689,0,0,1,2.38-5.775,8.254,8.254,0,0,1,5.97-2.3Q112.569-33.621,116.856-29.5Zm12.6-14.361h3.952V-26.58a16.551,16.551,0,0,1,5.219-4.7,12.709,12.709,0,0,1,6.193-1.559,10.836,10.836,0,0,1,6.1,1.74,10.335,10.335,0,0,1,3.9,4.662q1.252,2.922,1.252,9.212v15.7h-3.9V-16.087a35.558,35.558,0,0,0-.445-7.069,7.9,7.9,0,0,0-2.644-4.551,7.891,7.891,0,0,0-5.038-1.517,9.717,9.717,0,0,0-6.387,2.352,10.964,10.964,0,0,0-3.716,5.831,42.709,42.709,0,0,0-.529,8.322V-1.531h-3.952Zm41.854,20.6h15.419v3.451H171.312ZM202.7-43.919h3.952V-1.586H202.7Zm17.25,11.077H223.9v14.25a30.565,30.565,0,0,0,.557,7.181,7.987,7.987,0,0,0,3.2,4.439,9.768,9.768,0,0,0,5.678,1.628A9.511,9.511,0,0,0,238.9-6.93,8.083,8.083,0,0,0,242.05-11.1q.612-1.753.612-7.487v-14.25h4.008v15q0,6.318-1.489,9.5a11.291,11.291,0,0,1-4.439,4.982,14.026,14.026,0,0,1-7.4,1.8,14.234,14.234,0,0,1-7.459-1.8,11.1,11.1,0,0,1-4.453-5.038q-1.475-3.242-1.475-9.755Zm56.438,3.34-2.5,2.616q-3.173-3.062-6.151-3.062a4.684,4.684,0,0,0-3.284,1.252,3.911,3.911,0,0,0-1.364,2.978,4.246,4.246,0,0,0,1.141,2.783,14.879,14.879,0,0,0,4.7,3.256q4.4,2.254,5.956,4.37a8.086,8.086,0,0,1,1.531,4.815,8.572,8.572,0,0,1-2.63,6.332,8.98,8.98,0,0,1-6.582,2.6,11.774,11.774,0,0,1-5.052-1.127,10.55,10.55,0,0,1-3.966-3.159l2.477-2.811q3.006,3.4,6.374,3.4a5.7,5.7,0,0,0,3.994-1.517,4.673,4.673,0,0,0,1.656-3.549,4.572,4.572,0,0,0-1.085-3.006,17.243,17.243,0,0,0-4.926-3.284q-4.147-2.087-5.622-4.2a7.818,7.818,0,0,1-1.5-4.731,7.689,7.689,0,0,1,2.38-5.775,8.254,8.254,0,0,1,5.97-2.3Q272.1-33.621,276.389-29.5Zm12.6-14.361h3.952V-26.58a16.551,16.551,0,0,1,5.219-4.7,12.709,12.709,0,0,1,6.193-1.559,10.836,10.836,0,0,1,6.1,1.74,10.335,10.335,0,0,1,3.9,4.662q1.252,2.922,1.252,9.212v15.7h-3.9V-16.087a35.558,35.558,0,0,0-.445-7.069,7.9,7.9,0,0,0-2.644-4.551,7.891,7.891,0,0,0-5.038-1.517,9.717,9.717,0,0,0-6.387,2.352,10.964,10.964,0,0,0-3.716,5.831,42.709,42.709,0,0,0-.529,8.322V-1.531h-3.952Z" transform="translate(-1.419 -0.25) rotate(90)" fill="#424242"/></svg>